<?xml version="1.0" encoding="UTF-8"?>
<!DOCTYPE svg PUBLIC "-//W3C//DTD SVG 1.1//EN" "http://www.w3.org/Graphics/SVG/1.1/DTD/svg11.dtd">
<!-- Creator: CorelDRAW -->
<svg xmlns="http://www.w3.org/2000/svg" xml:space="preserve" width="164mm" height="36mm" version="1.1" shape-rendering="geometricPrecision" text-rendering="geometricPrecision" image-rendering="optimizeQuality" fill-rule="evenodd" clip-rule="evenodd"
viewBox="0 0 16400 3600"
 xmlns:xlink="http://www.w3.org/1999/xlink"
 xmlns:xodm="http://www.corel.com/coreldraw/odm/2003">
 <g id="Слой_x0020_1">
  <metadata id="CorelCorpID_0Corel-Layer"/>
  <g id="_2264507644992">
   <path fill="#EF7F1A" fill-rule="nonzero" d="M11222.61 1670.45l-1053.36 0 0 555.59c0.08,0.87 0.11,1.74 0.11,2.62 0,16.21 -13.17,29.35 -29.42,29.35l-620.78 0c-16.25,0 -29.42,-13.14 -29.42,-29.35l0 -1718.57c0,-16.2 13.17,-29.34 29.42,-29.34l1662.8 0 0 0.12c83.7,0 156.83,7.6 219.39,22.83 64.39,15.66 117.84,39.34 160.35,71.02l-0.07 0.09 0.19 0.14c38.34,29.04 67.17,64.08 86.45,105.14 19.08,40.63 28.62,86.78 28.62,138.46l0 484.72c0,52.11 -9.08,99.56 -27.25,142.33 -18.25,42.97 -45.4,80.9 -81.45,113.77 -0.24,0.24 -0.5,0.48 -0.76,0.71 -41.35,37.12 -91.13,64.89 -149.35,83.3 -57.1,18.05 -122.25,27.07 -195.47,27.07zm-1024.55 -822.56c-15.85,0 -28.81,9.59 -28.81,21.3l0 383.44c0,11.71 12.96,21.3 28.81,21.3l770.61 0c15.84,0 28.81,-9.59 28.81,-21.3l0 -383.44c0,-11.71 -12.97,-21.3 -28.81,-21.3l-770.61 0zm-1683.76 -371.54l599.61 0.84c16.18,0 29.3,13.09 29.3,29.23l3.18 1713.34c0,16.14 -13.13,29.23 -29.31,29.23l0 0.11 -620.67 0c-16.25,0 -29.43,-13.14 -29.43,-29.34 0,-0.86 0.05,-1.71 0.12,-2.56l-0.01 -923.01 -713.93 787.21 0 129.68c0,16.2 -13.18,29.34 -29.43,29.34l-620.69 0c-16.25,0 -29.43,-13.14 -29.43,-29.34l0 -1704.51c0,-16.21 13.18,-29.35 29.43,-29.35 0.86,0 1.72,0.04 2.57,0.12l618.12 -0.01c16.19,0 29.31,13.09 29.31,29.23l0.12 0 0 809.96 739.19 -830.31c5.79,-6.52 13.85,-9.85 21.95,-9.85l0 -0.01zm-3807.83 -1.54l2021.12 0c16.24,0 29.42,13.13 29.42,29.34 0,0.89 -0.04,1.76 -0.12,2.63l0 1714.33c0,16.14 -13.12,29.22 -29.3,29.22l0 0.12 -625.23 0c-16.25,0 -29.42,-13.14 -29.42,-29.34l0 -1207.45 -711.81 0 0 1207.45c0,16.2 -13.18,29.34 -29.43,29.34l-625.23 0c-16.25,0 -29.42,-13.14 -29.42,-29.34 0,-0.87 0.04,-1.71 0.11,-2.56l0 -1714.4c0,-16.14 13.13,-29.23 29.31,-29.23l0 -0.11zm7191.95 1741.37l0 -1703.61c-0.07,-0.84 -0.11,-1.7 -0.11,-2.56 0,-16.21 13.17,-29.35 29.42,-29.35l628.16 0c16.25,0 29.43,13.14 29.43,29.35l0 509.46 703.91 0 0 -509.46 0.12 0c0,-16.14 13.12,-29.23 29.31,-29.23l648.02 0c0.85,-0.07 1.7,-0.12 2.57,-0.12 16.24,0 29.42,13.14 29.42,29.35l0 452.74c0,54.1 -10.89,104.64 -32.67,151.63 -21.62,46.64 -53.83,89.37 -96.64,128.19l-0.04 -0.04 -0.31 0.27c-34.47,30.52 -70.34,54.78 -107.6,72.76 -7.29,3.51 -14.62,6.79 -22.01,9.83 9.68,4.68 19.22,9.73 28.62,15.18 37.91,21.96 73.4,50.15 106.46,84.56 41.19,42.54 72.16,88.94 92.92,139.19 20.85,50.48 31.27,104.39 31.27,161.72l0 490.14 -0.12 0c0,16.14 -13.12,29.23 -29.3,29.23l-650.59 0c-16.19,0 -29.31,-13.09 -29.31,-29.23l0 -621.7 -704.15 0 0 619.08c0.08,0.86 0.12,1.74 0.12,2.62 0,16.21 -13.18,29.35 -29.43,29.35l-628.16 0 0 -0.12c-16.19,0 -29.31,-13.09 -29.31,-29.23zm-11845.28 -1773.18l656.86 -2.95c16.92,-0.06 30.7,13.3 30.76,29.84l2.51 535.13 576.36 -2.58 -2.46 -524.6c-0.06,-16.54 13.6,-30.01 30.52,-30.08l672.14 -3.01c16.92,-0.07 30.7,13.29 30.76,29.84l1.76 374.68c0.28,60.55 -7.75,116.86 -24.12,168.9 -16.49,52.49 -41.39,100.58 -74.69,144.26l-0.26 0.34 0.02 0.01c-27.76,35.47 -59.63,66.79 -95.62,93.97 -19.58,14.79 -40.35,28.33 -62.32,40.61 22.37,12.4 43.5,26.45 63.42,42.19 36.29,28.65 68.52,62.83 96.67,102.5l0.04 -0.02c33.54,46.67 58.76,97.55 75.65,152.63 16.73,54.54 25.24,113.32 25.53,176.34l2.22 472.09c0.07,16.54 -13.6,30.01 -30.52,30.07l-672.14 3.03c-16.91,0.06 -30.69,-13.3 -30.75,-29.84l-3.1 -659.45 -576.36 2.58 3.05 648.92c0.06,16.54 -13.6,30.01 -30.52,30.07l-656.87 2.95c-16.92,0.06 -30.69,-13.3 -30.76,-29.84l-8.3 -1768.51c-0.07,-16.54 13.6,-30.01 30.52,-30.07zm3823.74 931.29l0 -233.61c0,-16.21 13.17,-29.35 29.42,-29.35l106.24 0c-29.25,-116.84 -92.74,-219.69 -178.21,-300.4 -88.73,-83.78 -201.11,-143.64 -323.48,-170.56l0 111.22c0,16.14 -13.12,29.23 -29.31,29.23l0 0.11 -233.13 0c-16.25,0 -29.42,-13.14 -29.42,-29.34 0,-0.86 0.04,-1.71 0.11,-2.56l0 -550.65c0,-16.14 13.13,-29.23 29.31,-29.23l0 -0.12 107.48 0c0.57,-0.05 1.14,-0.09 1.71,-0.12 2.29,-0.57 4.69,-0.88 7.16,-0.88l0.24 0 0.17 0c2.58,0 5.09,0.33 7.47,0.96 300.54,2 580.74,123.47 784.72,321.48 199.23,193.41 325.88,459.82 328.04,759.3 0.62,2.37 0.94,4.86 0.94,7.43l0 0.43c0,2.57 -0.32,5.06 -0.94,7.43 -2.14,299.49 -128.75,565.91 -327.95,759.33 -203.95,198.03 -484.13,319.53 -784.67,321.59 -2.39,0.63 -4.89,0.95 -7.48,0.95l-0.45 0c-2.58,0 -5.07,-0.32 -7.46,-0.94 -294.31,-1.98 -569.07,-118.48 -771.83,-309.21 -199.45,-187.62 -329.4,-447.05 -340.14,-740.02 -0.35,-1.8 -0.53,-3.67 -0.53,-5.58l0 -5.58c0,-0.64 0.02,-1.26 0.07,-1.89l-0.01 -0.36c-0.14,-6.72 -0.27,-13.4 -0.36,-18.39 -0.58,-2.3 -0.89,-4.7 -0.89,-7.18l0 -0.44c0,-2.76 0.39,-5.43 1.1,-7.96l0.09 -0.75 0 -107.95c0,-16.21 13.17,-29.35 29.42,-29.35l552.47 0c16.25,0 29.42,13.14 29.42,29.35l0 233.61c0,16.2 -13.17,29.34 -29.42,29.34l-109.3 0c29.29,116.9 92.74,219.73 178.14,300.35 88.67,83.71 201.01,143.54 323.37,170.45l0 -110.41c0,-16.21 13.17,-29.34 29.42,-29.34l233.13 0c16.25,0 29.43,13.13 29.43,29.34l0 110.42c122.39,-26.91 234.75,-86.75 323.43,-170.47 85.4,-80.61 148.87,-183.44 178.14,-300.34l-106.24 0c-16.25,0 -29.42,-13.14 -29.42,-29.34zm11104.41 868.85l-603.84 0c-25.43,0 -46.04,-20.56 -46.04,-45.92l0 -986.53c0,-107.88 25.5,-207.75 76.5,-299.56 50.29,-90.53 125.17,-172.4 224.64,-245.56 98.33,-72.33 207.6,-126.59 327.77,-162.73 119.45,-35.91 249.42,-53.88 389.87,-53.88 140.45,0 270.41,17.97 389.87,53.88 120.17,36.14 229.44,90.4 327.78,162.73 99.47,73.16 174.37,155.03 224.64,245.56 51,91.81 76.51,191.68 76.51,299.56l0 986.53c0,25.36 -20.62,45.92 -46.05,45.92l-614.6 0c-25.42,0 -46.04,-20.56 -46.04,-45.92 0,-1.33 0.07,-2.63 0.18,-3.93l-0.01 -298.2 -629.23 -0.81 -6.1 303.84c-0.48,24.96 -20.94,44.87 -45.85,44.86l0 0.16zm-27.17 -1300.46c-8.67,0 -15.76,9.03 -15.76,20.08l0 361.44c0,11.04 7.09,20.08 15.76,20.08l775.9 0c8.67,0 15.76,-9.04 15.76,-20.08l0 -361.44c0,-11.05 -7.09,-20.08 -15.76,-20.08l-775.9 0z"/>
   <path fill="#2B2A29" fill-rule="nonzero" d="M3665.87 1027.92c-47.44,114.76 -78.85,236.55 -95.9,360.61 -1.74,14.49 -14.74,25.8 -30.61,25.92l-153.44 1.43c-0.37,0.01 -0.75,0.01 -1.12,0.01l-165.03 -2.17c-14.22,0.71 -27.57,-7.9 -31.57,-21.34l-8.48 -28.22c-8.8,-29.33 -17.61,-58.66 -26.37,-88.03l0.04 0c-0.15,-0.49 -0.28,-0.99 -0.4,-1.49 -30.87,-128.95 -92.76,-239.49 -171.14,-341.16 -79.14,-102.65 -175.27,-196.57 -273.48,-291.17 -9.01,-7.78 -12.65,-20.2 -8.18,-31.68l116.38 -296.08 0.05 0.01c1.49,-3.85 3.87,-7.46 7.14,-10.56 12.1,-11.46 31.78,-11.51 43.95,-0.11 98.4,92.07 200.63,230.62 291.55,379.11 85.53,139.69 157.38,289.02 214.28,415.46 73.8,-205.55 141.43,-389.07 249.31,-556.1 123.45,-191.14 286.75,-358.9 516.33,-506.62l0.01 0.01c3.45,-2.22 7.43,-3.83 11.8,-4.6 16.88,-2.97 33.12,7.5 36.28,23.39l69.24 346.62c3.07,13.45 -4.3,27.48 -18.24,33.06l-0.69 0.28c-0.64,0.29 -1.29,0.56 -1.95,0.81 -84.82,32.46 -158.01,74.9 -222.4,124.47 -64.77,49.87 -120.63,106.92 -170.45,168.29 -73.99,91.15 -132.51,192.41 -176.91,299.85zm-3583.49 1546.96c-36.93,0 -49.62,12.69 -49.62,48.46l0 723.28c0,35.96 12.69,48.65 49.62,48.65l130.38 0c36.93,0 48.46,-12.69 48.46,-48.65l0 -569.81 218.08 0 0 569.81c0,35.96 12.69,48.65 48.46,48.65l131.54 0c35.77,0 48.46,-12.69 48.46,-48.65l0 -723.28c0,-35.77 -12.69,-48.46 -48.46,-48.46l-576.92 0zm790.39 0c-36.93,0 -49.62,12.69 -49.62,48.46l0 723.47c0,35.77 12.69,48.46 49.62,48.46l130.38 0c36.93,0 48.46,-12.69 48.46,-48.46l0 -197.31 141.93 0c181.15,0 295.38,-105 295.38,-285.58 0,-181.73 -116.53,-289.04 -297.69,-289.04l-318.46 0zm178.84 372.7l0 -170.77 114.24 0c54.23,0 86.53,34.8 86.53,85.96 0,51.15 -32.3,84.81 -86.53,84.81l-114.24 0zm498.47 141.92c0,201.92 129.23,323.08 355.38,323.08 225,0 354.23,-121.16 354.23,-323.08l0 -207.69c0,-201.93 -129.23,-323.08 -354.23,-323.08 -226.15,0 -355.38,121.15 -355.38,323.08l0 207.69zm481.15 10.38c0,72.7 -46.15,110.77 -125.77,110.77 -81.92,0 -126.92,-38.07 -126.92,-110.77l0 -228.46c0,-72.69 45,-110.77 126.92,-110.77 79.62,0 125.77,38.08 125.77,110.77l0 228.46zm375.01 -525c-36.93,0 -49.62,12.69 -49.62,48.46l0 723.47c0,35.77 12.69,48.46 49.62,48.46l493.85 0c35.77,0 48.46,-12.69 48.46,-48.46l0 -105c0,-36.93 -12.69,-48.46 -48.46,-48.46l-315.01 0 0 -110.77 243.47 0c36.92,0 49.61,-12.7 49.61,-49.62l0 -103.85c0,-35.76 -12.69,-48.46 -49.61,-48.46l-243.47 0 0 -103.84 304.62 0c36.92,0 49.62,-12.7 49.62,-49.62l0 -103.85c0,-35.77 -12.7,-48.46 -49.62,-48.46l-483.46 0zm1161.92 475.39c-19.61,-40.39 -43.85,-69.23 -70.38,-88.85l210 -335.58c18.46,-31.15 8.07,-50.96 -27.7,-50.96l-132.69 0c-28.84,0 -48.46,2.31 -58.84,7.12 -10.39,5.77 -21.93,17.31 -33.47,35.77l-166.15 262.88 -9.23 0 -16.16 0 0 -257.11c0,-35.77 -11.53,-48.66 -48.46,-48.66l-130.38 0c-36.93,0 -49.62,12.89 -49.62,48.66l0 723.27c0,35.77 12.69,48.46 49.62,48.46l130.38 0c36.93,0 48.46,-12.69 48.46,-48.46l0 -264.23 20.77 0c41.54,0 58.85,16.15 78.47,57.69l100.38 206.54c18.46,40.38 39.23,48.46 102.69,48.46l124.62 0c36.92,0 47.31,-25.38 30,-56.54l-152.31 -288.46zm227.31 -475.39c-36.93,0 -48.46,12.69 -48.46,48.46l0 103.85c0,36.92 11.53,49.62 48.46,49.62l171.92 0 0 569.81c0,35.96 11.54,48.65 48.46,48.65l130.39 0c36.92,0 49.61,-12.69 49.61,-48.65l0 -569.81 170.77 0c36.93,0 49.62,-12.7 49.62,-49.62l0 -103.85c0,-35.77 -12.69,-48.46 -49.62,-48.46l-571.15 0zm1191.92 0c-35.77,0 -48.46,12.69 -48.46,49.62l0 255 -223.85 0 0 -255c0,-36.93 -11.53,-49.62 -48.46,-49.62l-130.38 0c-36.93,0 -49.62,12.69 -49.62,49.62l0 722.31c0,35.77 12.69,48.46 49.62,48.46l130.38 0c36.93,0 48.46,-12.69 48.46,-48.46l0 -265.39 223.85 0 0 265.39c0,35.77 12.69,48.46 48.46,48.46l131.54 0c35.77,0 48.46,-12.69 48.46,-48.46l0 -722.31c0,-36.93 -12.69,-49.62 -48.46,-49.62l-131.54 0zm777.7 38.08c-10.38,-28.85 -26.54,-38.08 -60,-38.08l-131.54 0c-35.77,0 -49.61,8.08 -60,40.39l-265.38 732.69c-11.54,31.16 -1.16,47.31 31.15,47.31l121.16 0c55.38,0 71.53,-11.54 84.23,-48.46l26.53 -83.08 249.24 0 26.53 83.08c9.24,36.92 27.7,48.46 86.54,48.46l124.62 0c33.46,0 45,-16.15 33.46,-47.31l-266.54 -735zm-56.54 469.62l-144.23 0 42.69 -136.73c15,-52.12 23.08,-105.39 21.93,-160.97l11.54 0 1.15 23.08c1.15,31.35 10.38,92.69 24.23,139.04l42.69 135.58zm376.16 -229.04c0,110.19 39.23,188.65 117.69,234.81 -10.38,15 -21.92,33.46 -32.31,53.07l-94.61 197.31c-17.31,38.08 -8.08,56.54 30,56.54l125.77 0c63.46,0 84.23,-8.08 101.54,-48.46l68.07 -165c18.47,-45 36.93,-58.85 88.85,-58.85l31.15 0 0 223.85c0,35.77 12.7,48.46 48.47,48.46l131.54 0c35.76,0 48.46,-12.69 48.46,-48.46l0 -723.47c0,-35.77 -12.7,-48.46 -48.46,-48.46l-330.01 0c-176.53,0 -286.15,101.54 -286.15,278.66zm436.15 -76.73l0 150 -123.46 0c-50.77,0 -76.15,-24.43 -76.15,-74.43 0,-46.54 26.54,-75.57 76.15,-75.57l123.46 0zm702.7 -201.93c-36.93,0 -49.62,12.69 -49.62,48.46l0 263.27c0,86.93 -6.92,152.89 -21.92,198.08 -15,45 -39.23,82.12 -70.39,108.66l-25.38 0c-35.77,0 -48.46,11.53 -48.46,47.3l0 282.7c0,35.77 12.69,48.46 48.46,48.46l128.07 0c35.77,0 48.47,-12.69 48.47,-48.46l0 -128.08 422.31 0 0 128.08c0,35.77 12.69,48.46 49.61,48.46l126.92 0c36.93,0 48.47,-12.69 48.47,-48.46l0 -282.7c0,-35.77 -11.54,-47.3 -48.47,-47.3l-55.38 0 0 -570.01c0,-35.77 -12.69,-48.46 -49.62,-48.46l-503.07 0zm324.23 201.93l0 416.54 -204.23 0c35.77,-76.35 54.23,-179.43 54.23,-307.89l0 -108.65 150 0zm380.77 312.69c0,201.92 129.23,323.08 355.38,323.08 225,0 354.23,-121.16 354.23,-323.08l0 -207.69c0,-201.93 -129.23,-323.08 -354.23,-323.08 -226.15,0 -355.38,121.15 -355.38,323.08l0 207.69zm481.15 10.38c0,72.7 -46.15,110.77 -125.77,110.77 -81.92,0 -126.92,-38.07 -126.92,-110.77l0 -228.46c0,-72.69 45,-110.77 126.92,-110.77 79.62,0 125.77,38.08 125.77,110.77l0 228.46zm858.47 -49.61c-19.61,-40.39 -43.85,-69.23 -70.38,-88.85l210 -335.58c18.46,-31.15 8.07,-50.96 -27.7,-50.96l-132.69 0c-28.84,0 -48.46,2.31 -58.84,7.12 -10.39,5.77 -21.93,17.31 -33.47,35.77l-166.15 262.88 -9.23 0 -16.16 0 0 -257.11c0,-35.77 -11.53,-48.66 -48.46,-48.66l-130.38 0c-36.93,0 -49.62,12.89 -49.62,48.66l0 723.27c0,35.77 12.69,48.46 49.62,48.46l130.38 0c36.93,0 48.46,-12.69 48.46,-48.46l0 -264.23 20.77 0c41.54,0 58.85,16.15 78.47,57.69l100.38 206.54c18.46,40.38 39.23,48.46 102.69,48.46l124.62 0c36.92,0 47.31,-25.38 30,-56.54l-152.31 -288.46zm741.93 -475.39c-54.24,0 -66.93,4.62 -80.77,42.89l-106.16 256.34 -111.92 -256.34c-15,-38.27 -30,-42.89 -88.85,-42.89l-136.15 0c-33.46,0 -42.7,16.16 -27.7,48.66l244.62 529.04 -86.54 194.04c-15,32.5 -6.92,48.65 24.23,48.65l146.54 0c50.77,0 64.62,-6.92 79.62,-42.88l304.61 -728.85c13.85,-32.5 5.77,-48.66 -24.23,-48.66l-137.3 0zm876.92 0c-38.07,0 -49.61,5.77 -64.61,36.93l-190.39 372.69 -190.38 -373.85c-17.31,-28.84 -27.7,-35.77 -68.08,-35.77l-108.46 0c-36.93,0 -49.62,11.54 -49.62,48.46l0 724.62c0,35.77 12.69,47.31 49.62,47.31l117.69 0c36.92,0 49.62,-11.54 49.62,-47.31l0 -163.84c0,-76.16 -16.16,-177.7 -47.31,-303.47l11.54 0c24.23,84.23 47.3,147.7 71.54,190.39l68.07 130.38c12.7,26.54 24.23,33.46 55.39,33.46l77.31 0c28.84,0 41.53,-9.23 55.38,-33.46l64.62 -130.38c11.53,-21.93 25.38,-54.23 42.69,-96.93 17.31,-42.69 28.84,-73.84 34.61,-93.46l12.7 0c-33.47,118.85 -50.77,219.23 -50.77,302.31l0 165c0,35.77 11.54,47.31 48.46,47.31l125.77 0c36.92,0 49.61,-11.54 49.61,-47.31l0 -724.62c0,-36.92 -12.69,-48.46 -49.61,-48.46l-115.39 0zm330.01 0c-36.93,0 -49.62,12.69 -49.62,48.46l0 723.47c0,35.77 12.69,48.46 49.62,48.46l493.85 0c35.77,0 48.46,-12.69 48.46,-48.46l0 -105c0,-36.93 -12.69,-48.46 -48.46,-48.46l-315.01 0 0 -110.77 243.47 0c36.92,0 49.61,-12.7 49.61,-49.62l0 -103.85c0,-35.76 -12.69,-48.46 -49.61,-48.46l-243.47 0 0 -103.84 304.62 0c36.92,0 49.62,-12.7 49.62,-49.62l0 -103.85c0,-35.77 -12.7,-48.46 -49.62,-48.46l-483.46 0zm1129.61 0c-35.77,0 -48.46,12.69 -48.46,49.62l0 255 -223.85 0 0 -255c0,-36.93 -11.53,-49.62 -48.46,-49.62l-130.38 0c-36.93,0 -49.62,12.69 -49.62,49.62l0 722.31c0,35.77 12.69,48.46 49.62,48.46l130.38 0c36.93,0 48.46,-12.69 48.46,-48.46l0 -265.39 223.85 0 0 265.39c0,35.77 12.69,48.46 48.46,48.46l131.54 0c35.77,0 48.46,-12.69 48.46,-48.46l0 -722.31c0,-36.93 -12.69,-49.62 -48.46,-49.62l-131.54 0zm300.01 0c-36.93,0 -48.46,12.69 -48.46,48.46l0 103.85c0,36.92 11.53,49.62 48.46,49.62l171.92 0 0 569.81c0,35.96 11.54,48.65 48.46,48.65l130.39 0c36.92,0 49.61,-12.69 49.61,-48.65l0 -569.81 170.77 0c36.93,0 49.62,-12.7 49.62,-49.62l0 -103.85c0,-35.77 -12.69,-48.46 -49.62,-48.46l-571.15 0zm1080 38.08c-10.38,-28.85 -26.54,-38.08 -60,-38.08l-131.54 0c-35.77,0 -49.61,8.08 -60,40.39l-265.38 732.69c-11.54,31.16 -1.16,47.31 31.15,47.31l121.16 0c55.38,0 71.53,-11.54 84.23,-48.46l26.53 -83.08 249.24 0 26.53 83.08c9.24,36.92 27.7,48.46 86.54,48.46l124.62 0c33.46,0 45,-16.15 33.46,-47.31l-266.54 -735zm-56.54 469.62l-144.23 0 42.69 -136.73c15,-52.12 23.08,-105.39 21.93,-160.97l11.54 0 1.15 23.08c1.15,31.35 10.38,92.69 24.23,139.04l42.69 135.58zm1039.62 110.77l0 -569.81c0,-35.77 -11.54,-48.66 -48.46,-48.66l-130.38 0c-36.93,0 -49.62,12.89 -49.62,48.66l0 569.81 -214.62 0 0 -569.81c0,-35.77 -11.53,-48.66 -48.46,-48.66l-130.38 0c-36.93,0 -49.62,12.89 -49.62,48.66l0 723.27c0,35.77 12.69,48.46 49.62,48.46l501.92 0 0 128.08c0,36.92 11.54,49.61 48.46,49.61l118.85 0c36.92,0 49.62,-12.69 49.62,-49.61l0 -282.7c0,-35.77 -12.7,-47.3 -49.62,-47.3l-47.31 0zm683.08 -618.47c-21.92,0 -38.07,8.08 -48.46,23.08l-156.92 268.85c-32.31,54.23 -69.23,135 -110.77,240l-8.08 0c18.46,-61.16 30,-108.46 35.77,-141.93 4.62,-33.46 6.92,-80.77 6.92,-143.07l0 -198.27c0,-35.97 -11.53,-48.66 -48.46,-48.66l-130.38 0c-36.93,0 -49.62,12.69 -49.62,48.66l0 723.08c0,35.96 12.69,48.65 49.62,48.65l139.61 0c23.08,0 39.23,-8.08 47.31,-23.27l159.23 -271.35c25.39,-42.88 45,-77.5 57.7,-106.34 12.69,-28.85 28.84,-72.7 50.76,-131.73l9.24 0c-2.31,10.38 -5.77,25.38 -11.54,47.5 -5.77,21.92 -9.23,35.77 -10.39,42.69 -2.31,6.92 -4.61,18.46 -8.07,33.46 -6.93,32.31 -6.93,41.54 -10.39,70.39 -3.46,29.03 -3.46,55.57 -3.46,92.5l0 196.34c0,37.12 12.69,49.81 49.62,49.81l129.23 0c36.92,0 49.61,-12.69 49.61,-48.65l0 -722.12c0,-36.93 -12.69,-49.62 -49.61,-49.62l-138.47 0zm311.54 278.66c0,110.19 39.23,188.65 117.69,234.81 -10.38,15 -21.92,33.46 -32.31,53.07l-94.61 197.31c-17.31,38.08 -8.08,56.54 30,56.54l125.77 0c63.46,0 84.23,-8.08 101.54,-48.46l68.07 -165c18.47,-45 36.93,-58.85 88.85,-58.85l31.15 0 0 223.85c0,35.77 12.7,48.46 48.47,48.46l131.54 0c35.76,0 48.46,-12.69 48.46,-48.46l0 -723.47c0,-35.77 -12.7,-48.46 -48.46,-48.46l-330.01 0c-176.53,0 -286.15,101.54 -286.15,278.66zm436.15 -76.73l0 150 -123.46 0c-50.77,0 -76.15,-24.43 -76.15,-74.43 0,-46.54 26.54,-75.57 76.15,-75.57l123.46 0z"/>
  </g>
 </g>
</svg>
